#!OML:ASF H:\Dans Jumps\Project 1\Capture day 1\Session 1\subject.ASF
:FULLY-SPECIFIED
:DEGREES
466
root 0.221132 15.9563 7.03775 -4.97656 0.3109 -1.53546
lowerback 11.3682 1.43353 0.471053
upperback 8.32356 1.92941 1.53422
thorax 2.28836 0.949752 1.15203
lowerneck -7.82658 -0.824341 -1.51277
upperneck 33.4428 -1.53752 2.20321
head 12.3468 -0.577814 0.919884
rclavicle 8.15017e-015 3.57812e-015
rhumerus -11.2117 0.027048 -82.612
rradius 37.2404
rwrist 28.5552
rhand -21.3855 -27.6061
rfingers 7.12502
rthumb 5.00211 -57.5271
lclavicle 8.15017e-015 3.57812e-015
lhumerus -20.805 -4.56404 88.9366
lradius 22.7199
lwrist 21.1568
lhand -27.1666 -10.5587
lfingers 7.12502
lthumb -0.581026 19.4202
rfemur -34.4285 -1.17299 21.1106
rtibia 52.8091
rfoot -12.6597 -1.46186
rtoes 5.94171
lfemur -34.3059 4.71112 -16.3045
ltibia 50.2546
lfoot -8.81088 3.43045
ltoes -11.7229
467
root 0.22515 16.0514 7.14097 -4.99794 0.455246 -1.44549
lowerback 11.0129 1.36374 0.413562
upperback 8.19232 1.83152 1.45703
thorax 2.34356 0.900575 1.11942
lowerneck -7.8254 -0.847233 -1.43856
upperneck 33.7819 -1.60077 2.22427
head 12.4899 -0.593297 0.909957
rclavicle -2.39536e-014 4.17448e-015
rhumerus -11.0438 0.3082 -82.5811
rradius 37.3788
rwrist 28.6257
rhand -21.3524 -27.5093
rfingers 7.12502
rthumb 5.03406 -57.4295
lclavicle -2.39536e-014 4.17448e-015
lhumerus -20.8967 -4.90664 88.8383
lradius 23.0656
lwrist 21.4063
lhand -27.5399 -11.0263
lfingers 7.12502
lthumb -0.941574 18.9514
rfemur -33.262 -1.07207 20.9224
rtibia 51.633
rfoot -12.5668 -1.45802
rtoes 6.27138
lfemur -33.1399 4.39898 -16.401
ltibia 49.0187
lfoot -8.59491 3.56778
ltoes -11.5797
468
root 0.229473 16.1477 7.24256 -5.02319 0.63106 -1.3408
lowerback 10.651 1.28491 0.3395
upperback 8.04923 1.72088 1.38452
thorax 2.39004 0.844223 1.10131
lowerneck -7.80719 -0.869383 -1.38997
upperneck 34.1093 -1.65327 2.23154
head 12.6255 -0.608747 0.900555
rclavicle -1.89839e-014 -1.19271e-014
rhumerus -10.9144 0.50116 -82.5312
rradius 37.4439
rwrist 28.6778
rhand -21.2879 -27.3877
rfingers 7.12502
rthumb 5.09642 -57.3064
lclavicle -1.89839e-014 -1.19271e-014
lhumerus -21.0396 -5.21547 88.7454
lradius 23.2447
lwrist 21.1735
lhand -27.9129 -11.2637
lfingers 7.12502
lthumb -1.3018 18.7121
rfemur -32.0703 -1.07857 20.7236
rtibia 50.4017
rfoot -12.4568 -1.39986
rtoes 6.59787
lfemur -31.9426 4.05885 -16.521
ltibia 47.7063
lfoot -8.35446 3.66017
ltoes -11.4313
469
root 0.233686 16.244 7.34312 -5.00609 0.809092 -1.24147
lowerback 10.2272 1.20529 0.254153
upperback 7.88915 1.60828 1.32839
thorax 2.45211 0.78597 1.10698
lowerneck -7.77171 -0.8896 -1.38247
upperneck 34.4074 -1.69091 2.22965
head 12.746 -0.623998 0.896546
rclavicle -1.62506e-014 -7.15625e-015
rhumerus -10.825 0.621262 -82.4592
rradius 37.4708
rwrist 28.7049
rhand -21.2081 -27.2639
rfingers 7.12502
rthumb 5.17343 -57.1808
lclavicle -1.62506e-014 -7.15625e-015
lhumerus -21.2202 -5.44099 88.6557
lradius 23.2618
lwrist 20.5642
lhand -28.2323 -11.3396
lfingers 7.12502
lthumb -1.61022 18.634
rfemur -30.9167 -1.15662 20.5429
rtibia 49.1304
rfoot -12.3258 -1.30356
rtoes 6.90065
lfemur -30.7815 3.73746 -16.6383
ltibia 46.3524
lfoot -8.10731 3.69437
ltoes -11.2752
470
root 0.237767 16.3387 7.44312 -4.90393 0.971408 -1.16765
lowerback 9.70337 1.13154 0.16691
upperback 7.71061 1.50302 1.29872
thorax 2.54941 0.730557 1.14144
lowerneck -7.74931 -0.907177 -1.40371
upperneck 34.673 -1.71344 2.21438
head 12.856 -0.637879 0.894031
rclavicle 2.17172e-014 1.35174e-014
rhumerus -10.7737 0.68222 -82.3572
rradius 37.4989
rwrist 28.7063
rhand -21.1232 -27.1507
rfingers 7.12502
rthumb 5.25536 -57.0655
lclavicle 2.17172e-014 1.35174e-014
lhumerus -21.4066 -5.57562 88.5668
lradius 23.1506
lwrist 19.739
lhand -28.4383 -11.2925
lfingers 7.12502
lthumb -1.80927 18.6795
rfemur -29.8605 -1.2796 20.4045
rtibia 47.8391
rfoot -12.1741 -1.1786
rtoes 7.18828
lfemur -29.7213 3.45751 -16.728
ltibia 44.9914
lfoot -7.8668 3.67108
ltoes -11.0821
471
root 0.241884 16.431 7.54282 -4.69749 1.09305 -1.12525
lowerback 9.06544 1.06948 0.0857799
upperback 7.51051 1.4134 1.29491
thorax 2.6871 0.68244 1.19897
lowerneck -7.74393 -0.920233 -1.44738
upperneck 34.8986 -1.72114 2.1915
head 12.9529 -0.649147 0.893989
rclavicle -8.94531e-015 -1.5704e-014
rhumerus -10.7582 0.689264 -82.2326
rradius 37.5436
rwrist 28.7061
rhand -21.0456 -27.0498
rfingers 7.12502
rthumb 5.33034 -56.9628
lclavicle -8.94531e-015 -1.5704e-014
lhumerus -21.6057 -5.59756 88.4725
lradius 22.9554
lwrist 18.8367
lhand -28.4908 -11.1932
lfingers 7.12502
lthumb -1.85991 18.7784
rfemur -28.9326 -1.41111 20.3161
rtibia 46.5443
rfoot -12.0037 -1.03248
rtoes 7.46512
lfemur -28.7909 3.23765 -16.7804
ltibia 43.6506
lfoot -7.64265 3.60825
ltoes -10.8575
472
root 0.245884 16.5201 7.64167 -4.39672 1.15675 -1.1098
lowerback 8.34087 1.02387 0.00664684
upperback 7.29029 1.34571 1.31307
thorax 2.85224 0.644717 1.27698
lowerneck -7.75561 -0.926312 -1.50185
upperneck 35.0732 -1.71247 2.16046
head 13.0313 -0.655831 0.894227
rclavicle 1.15792e-014 2.98177e-015
rhumerus -10.7738 0.662324 -82.092
rradius 37.6156
rwrist 28.7015
rhand -20.9842 -26.951
rfingers 7.12502
rthumb 5.38958 -56.8625
lclavicle 1.15792e-014 2.98177e-015
lhumerus -21.8037 -5.54467 88.3692
lradius 22.7132
lwrist 18.0166
lhand -28.3859 -11.0539
lfingers 7.12502
lthumb -1.75861 18.9186
rfemur -28.1322 -1.5182 20.2745
rtibia 45.2593
rfoot -11.8149 -0.873869
rtoes 7.76389
lfemur -27.9846 3.08025 -16.7946
ltibia 42.3433
lfoot -7.4368 3.53011
ltoes -10.6159
473
root 0.25 16.6056 7.73921 -4.03737 1.1472 -1.13257
lowerback 7.58077 0.9979 -0.0455539
upperback 7.0549 1.30576 1.34776
thorax 3.02281 0.621529 1.35506
lowerneck -7.77569 -0.924934 -1.55283
upperneck 35.1925 -1.68976 2.12131
head 13.0873 -0.657187 0.891905
rclavicle 2.04251e-014 -8.15017e-015
rhumerus -10.8209 0.609318 -81.948
rradius 37.7186
rwrist 28.6846
rhand -20.9412 -26.8552
rfingers 7.12502
rthumb 5.43109 -56.7656
lclavicle 2.04251e-014 -8.15017e-015
lhumerus -22.0131 -5.42817 88.2515
lradius 22.4529
lwrist 17.3469
lhand -28.1385 -10.9165
lfingers 7.12502
lthumb -1.51966 19.0578
rfemur -27.425 -1.574 20.2902
rtibia 43.991
rfoot -11.6109 -0.708279
rtoes 8.14349
lfemur -27.2612 2.97878 -16.7545
ltibia 41.0721
lfoot -7.25265 3.4661
ltoes -10.3836
474
root 0.254356 16.6874 7.83498 -3.66167 1.06961 -1.174
lowerback 6.8338 0.989281 -0.077018
upperback 6.81609 1.29016 1.38405
thorax 3.18443 0.611348 1.42135
lowerneck -7.81345 -0.913743 -1.574
upperneck 35.2611 -1.65085 2.06079
head 13.1242 -0.650432 0.87743
rclavicle 4.07509e-015 -2.36554e-014
rhumerus -10.8928 0.538844 -81.8168
rradius 37.8536
rwrist 28.6474
rhand -20.9197 -26.7735
rfingers 7.12502
rthumb 5.45185 -56.6834
lclavicle 4.07509e-015 -2.36554e-014
lhumerus -22.2224 -5.31095 88.1158
lradius 22.1969
lwrist 16.8923
lhand -27.8068 -10.7303
lfingers 7.12502
lthumb -1.19935 19.2461
rfemur -26.7678 -1.57786 20.3401
rtibia 42.7465
rfoot -11.3955 -0.54903
rtoes 8.5667
lfemur -26.5687 2.91122 -16.6815
ltibia 39.8326
lfoot -7.09347 3.43694
ltoes -10.1744
475
root 0.25902 16.7649 7.92861 -3.30812 0.933962 -1.21759
lowerback 6.13953 0.995036 -0.0931119
upperback 6.5844 1.29479 1.41099
thorax 3.32603 0.612194 1.46772
lowerneck -7.85062 -0.892858 -1.56766
upperneck 35.274 -1.59775 1.98541
head 13.1357 -0.636024 0.853532
rclavicle -4.37326e-015 -1.70955e-014
rhumerus -10.9831 0.456528 -81.709
rradius 38.0182
rwrist 28.5828
rhand -20.9157 -26.7021
rfingers 7.12502
rthumb 5.45574 -56.6119
lclavicle -4.37326e-015 -1.70955e-014
lhumerus -22.4312 -5.19573 87.956
lradius 21.951
lwrist 16.6088
lhand -27.4327 -10.5068
lfingers 7.12502
lthumb -0.837955 19.4712
rfemur -26.1225 -1.53743 20.4037
rtibia 41.534
rfoot -11.1791 -0.408208
rtoes 8.99538
lfemur -25.8631 2.85883 -16.5962
ltibia 38.6233
lfoot -6.96444 3.4581
ltoes -9.98947
476
root 0.264197 16.8375 8.01993 -2.99901 0.762268 -1.25019
lowerback 5.52243 1.0067 -0.0977707
upperback 6.36747 1.30836 1.41984
thorax 3.44189 0.618487 1.48773
lowerneck -7.88661 -0.865065 -1.52649
upperneck 35.2285 -1.53467 1.89026
head 13.1207 -0.615491 0.816442
rclavicle 1.50579e-014 -4.77083e-015
rhumerus -11.0868 0.365924 -81.6324
rradius 38.2102
rwrist 28.4899
rhand -20.9173 -26.657
rfingers 7.12502
rthumb 5.45419 -56.5668
lclavicle 1.50579e-014 -4.77083e-015
lhumerus -22.6284 -5.11117 87.7694
lradius 21.7128
lwrist 16.4631
lhand -27.0658 -10.2506
lfingers 7.12502
lthumb -0.483624 19.7286
rfemur -25.4663 -1.4697 20.4613
rtibia 40.3642
rfoot -10.9749 -0.296071
rtoes 9.41099
lfemur -25.1232 2.79954 -16.5191
ltibia 37.4476
lfoot -6.87614 3.53275
ltoes -9.81427
477
root 0.269679 16.9046 8.1086 -2.7371 0.567796 -1.26449
lowerback 4.97604 1.01831 -0.0982169
upperback 6.16617 1.32267 1.40968
thorax 3.53614 0.625816 1.48488
lowerneck -7.9045 -0.824688 -1.45975
upperneck 35.1314 -1.45313 1.77965
head 13.0786 -0.58581 0.770819
rclavicle 7.95139e-015 1.78906e-014
rhumerus -11.2029 0.27962 -81.5899
rradius 38.4302
rwrist 28.3753
rhand -20.9289 -26.6245
rfingers 7.12502
rthumb 5.44303 -56.5346
lclavicle 7.95139e-015 1.78906e-014
lhumerus -22.8308 -5.02065 87.5539
lradius 21.483
lwrist 16.341
lhand -26.7419 -9.98961
lfingers 7.12502
lthumb -0.170769 19.9901
rfemur -24.803 -1.37962 20.5027
rtibia 39.2489
rfoot -10.7934 -0.220992
rtoes 9.77749
lfemur -24.3564 2.73047 -16.4632
ltibia 36.3192
lfoot -6.84063 3.66096
ltoes -9.6243
